<?xml version="1.0" encoding="UTF-8" standalone="no"?><!-- Generator: Adobe Illustrator 23.0.6, SVG Export Plug-In . SVG Version: 6.00 Build 0)  -->

<svg xmlns:dc="http://purl.org/dc/elements/1.1/" xmlns:cc="http://creativecommons.org/ns#"
    xmlns:rdf="http://www.w3.org/1999/02/22-rdf-syntax-ns#" xmlns="http://www.w3.org/2000/svg"
    xmlns:sodipodi="http://sodipodi.sourceforge.net/DTD/sodipodi-0.dtd"
    xmlns:inkscape="http://www.inkscape.org/namespaces/inkscape" version="1.1" x="0px" y="0px"
    viewBox="0 0 1024 500" xml:space="preserve" id="svg897" sodipodi:docname="home_slide_banner.svg"
    inkscape:version="0.92.2 5c3e80d, 2017-08-06"
    inkscape:export-filename="/Users/outadoc/Downloads/home_slide_banner.png"
    inkscape:export-xdpi="96" inkscape:export-ydpi="96" width="1024" height="500"><metadata
     id="metadata903"><rdf:RDF><cc:Work
         rdf:about=""><dc:format>image/svg+xml</dc:format><dc:type
    rdf:resource="http://purl.org/dc/dcmitype/StillImage" /><dc:title></dc:title></cc:Work></rdf:RDF></metadata>
    <defs id="defs901" />
    <sodipodi:namedview pagecolor="#ffffff" bordercolor="#666666" borderopacity="1"
        objecttolerance="10" gridtolerance="10" guidetolerance="10" inkscape:pageopacity="0"
        inkscape:pageshadow="2" inkscape:window-width="1440" inkscape:window-height="797"
        id="namedview899" showgrid="true" inkscape:zoom="0.70710678" inkscape:cx="558.24473"
        inkscape:cy="172.58875" inkscape:window-x="0" inkscape:window-y="0"
        inkscape:window-maximized="0" inkscape:current-layer="svg897"><inkscape:grid
       type="xygrid"
       id="grid890" /></sodipodi:namedview>
    <style type="text/css" id="style879">
	.st0{fill:#3FA9F5;}
	.st1{fill:#FFFFFF;}
	.st2{fill:#030104;}
</style>
    <g id="Layer_1" style="fill:#00b8d4;fill-opacity:1"
        transform="matrix(1,0,0,0.48900487,0,-0.74098234)"><rect
       class="st0"
       width="1024"
       height="1024"
       id="rect881"
       x="0"
       y="0"
       style="fill:#00b8d4;fill-opacity:1" /></g>
    <g id="Layer_2" transform="matrix(0.51457992,0,0,0.47064563,5.2903413,21.374251)"><path
       style="fill:#ffffff;stroke-width:0.92144144"
       d="m 214.33844,303.59278 c -54.42954,0 -98.55824,44.1287 -98.55824,98.55824 v 625.73078 c 0,54.4295 44.1287,98.5582 98.55824,98.5582 h 595.32312 c 54.42955,0 98.55824,-44.1287 98.55824,-98.5582 V 402.15102 c 0,-54.42954 -44.12869,-98.55824 -98.55824,-98.55824 z m 301.79905,129.37074 260.63835,236.09056 c 0,0 -15.71109,30.24171 -57.64589,0 L 516.13749,487.03341 299.63476,670.19689 c -36.23108,30.6195 -52.84431,0 -52.84431,0 z m 145.8541,53.63617 H 714.2006 V 594.0304 l -51.99664,-44.10861 z m -147.48462,34.92299 184.30628,163.93378 v 201.81366 c 0,0 0.66279,14.75207 -14.02498,14.75207 h -130.7709 l 0.23937,-109.11702 c 0,0 1.27195,-18.0419 -19.44206,-18.0419 h -55.43406 c -17.5166,0 -15.63571,18.0419 -15.63571,18.0419 l -0.19437,109.46796 c 0,0 -119.19809,0.15657 -133.59101,0.15657 -11.5733,0 -11.10229,-11.84917 -11.10229,-11.84917 V 685.45646 Z"
       id="path884"
       inkscape:connector-curvature="0" /></g>
    <g id="g4585" transform="translate(29.698484,56.515667)"><text
       id="text840"
       y="302.25275"
       x="526.79456"
       style="font-style:normal;font-weight:normal;font-size:40px;line-height:1.25;font-family:sans-serif;letter-spacing:0px;word-spacing:0px;fill:#000000;fill-opacity:1;stroke:none"
       xml:space="preserve"><tspan
         style="font-style:normal;font-variant:normal;font-weight:bold;font-stretch:normal;font-size:74.66666412px;font-family:Roboto;-inkscape-font-specification:'Roboto Bold';fill:#ffffff;fill-opacity:1"
         y="302.25275"
         x="526.79456"
         id="tspan838"
         sodipodi:role="line">Home Slide</tspan></text>
        <text xml:space="preserve"
            style="font-style:normal;font-variant:normal;font-weight:normal;font-stretch:normal;font-size:40px;line-height:1.25;font-family:Roboto;-inkscape-font-specification:'Roboto, Normal';font-variant-ligatures:normal;font-variant-caps:normal;font-variant-numeric:normal;font-feature-settings:normal;text-align:start;letter-spacing:0px;word-spacing:0px;writing-mode:lr-tb;text-anchor:start;fill:#ffffff;fill-opacity:1;stroke:none"
            x="530.20874" y="343.97205" id="text886"><tspan
         y="343.97205"
         x="530.20874"
         id="tspan888"
         sodipodi:role="line">for Home Assistant</tspan></text>
</g></svg>